<svg width="878" height="1080" viewBox="0 0 878 1080" fill="none" xmlns="http://www.w3.org/2000/svg">
<path d="M768.237 64.7423C774.314 75.4644 779.549 86.591 785.061 97.6234C783.727 94.6722 782.433 91.7075 781.1 88.7562C786.687 103.681 791.897 118.655 796.026 134.114C800.086 149.319 802.697 164.778 805.665 180.274C805.314 177.267 804.933 174.31 804.581 171.302C805.687 181.771 806.585 192.112 804.992 202.862C805.455 199.975 805.917 197.088 806.409 194.151C805.563 199.107 804.25 203.945 802.192 208.759C803.399 206.054 804.606 203.35 805.813 200.645C804.022 204.537 801.864 208.197 799.22 211.666C801.072 209.257 802.894 206.898 804.746 204.489C802.062 207.813 799.07 210.807 795.71 213.568C798.089 211.654 800.497 209.69 802.876 207.775C798.663 211.063 794.182 213.849 789.363 216.195C792.199 214.838 795.075 213.467 797.911 212.11C791.108 215.287 784.136 217.532 776.925 219.067C779.92 218.447 782.956 217.814 785.951 217.194C778.551 218.674 771.349 219.295 763.996 219.058C766.893 219.183 769.741 219.286 772.639 219.412C757.496 218.768 743.065 215.667 729.059 211.432C731.759 212.258 734.409 213.061 737.109 213.887C708.541 205.131 681.782 192.398 652.363 185.435C622.159 178.302 586.071 177.834 554.882 189.794C520.044 203.149 492.18 230.643 481.968 264.736C473.81 291.959 477.233 320.598 485.266 345.815C494.305 374.212 509.412 399.919 521.495 426.928C520.152 423.94 518.838 420.903 517.494 417.916C532.912 452.619 544.522 489.247 549.289 527.641C548.867 524.222 548.436 520.767 548.014 517.348C550.976 542.108 550.922 567.414 546.849 592.777C547.41 589.303 547.97 585.828 548.541 582.389C545.451 600.771 540.466 619.201 532.662 636.846C534.136 633.536 535.609 630.227 537.083 626.917C533.789 634.168 529.899 641.146 524.977 647.683C527.285 644.724 529.543 641.742 531.851 638.783C528.414 643.154 524.649 647.121 520.288 650.658C523.301 648.212 526.314 645.765 529.297 643.369C525.798 646.098 522.14 648.407 518.174 650.385C521.813 648.637 525.423 646.938 529.062 645.19C523.31 647.931 517.409 649.813 511.269 651.143C515.168 650.336 519.066 649.529 522.954 648.685C514.761 650.276 506.685 650.719 498.548 650.47C502.319 650.616 506.099 650.799 509.87 650.945C498.359 650.415 487.343 648.373 476.662 645.187C480.166 646.255 483.63 647.336 487.134 648.404C450.694 637.212 421.074 614.566 389.366 595.991C352.753 574.568 307.926 561.273 261.873 566.044C236.902 568.614 209.388 576.597 188.484 592.193C173.874 603.083 163.381 613.804 153.151 628.472C146.091 638.583 140.828 650.34 137.54 661.704C124.09 708.135 141.704 752.383 164.508 789.49C175.586 807.5 188.528 824.245 200.112 841.886C214.341 863.616 226.756 886.476 237.347 910.271C235.635 906.419 233.932 902.603 232.221 898.751C241.258 919.274 249.99 940.414 252.8 963.207C252.278 958.951 251.746 954.659 251.224 950.404C252.178 958.747 252.249 967.192 250.962 975.742C251.66 971.508 252.319 967.287 253.018 963.053C252.053 968.842 250.444 974.493 248.021 980.024C249.781 976.023 251.581 972.009 253.352 968.045C251.344 972.407 248.929 976.55 245.987 980.515C248.741 976.97 251.484 973.388 254.238 969.842C251.038 973.974 247.472 977.717 243.378 981.123C246.956 978.208 250.574 975.28 254.162 972.401C249.751 975.915 245.062 978.89 240.015 981.353C244.348 979.29 248.681 977.227 253.005 975.128C246.52 978.198 239.825 980.349 232.911 981.862C237.544 980.885 242.216 979.894 246.858 978.953C237.127 980.947 227.483 981.525 217.799 981.168C222.274 981.353 226.749 981.537 231.264 981.708C217.947 981.078 205.025 978.732 192.637 975.017C196.757 976.272 200.886 977.563 205.045 978.804C184.08 972.298 164.639 962.823 143.961 955.784C130.183 951.116 116.027 946.497 101.299 944.209C92.1389 942.764 82.7421 942.507 73.3354 942.213C67.5603 942.034 61.7461 942.185 55.9127 942.897C41.4782 944.664 27.1885 950.736 16.7453 961.479C7.44149 971.005 0.189261 985.93 0.484311 998.336C0.810377 1011.64 5.2446 1025.22 15.9821 1033.49C26.0641 1041.27 39.298 1046.64 53.4745 1044.88C60.3098 1044.02 67.0268 1043.69 73.7843 1043.97C69.18 1043.79 64.5658 1043.57 59.9616 1043.39C73.4272 1044.09 86.3203 1046.96 98.8574 1050.74C94.6883 1049.46 90.4695 1048.16 86.3003 1046.89C121.47 1057.72 154.318 1075.39 192.424 1078.78C217.233 1080.97 241.829 1080.03 266.773 1072.17C278.307 1068.53 289.929 1063.17 300.03 1056.38C314.751 1046.52 324.827 1035.7 335.018 1022C341.981 1012.63 346.837 1001.61 350.295 991.017C353.714 980.439 355.355 969.237 355.777 958.488C356.544 939.548 352.995 920.37 347.385 902.841C340.857 882.457 331.791 862.776 322.566 843.623C314.277 826.448 304.996 809.768 294.724 793.74C275.731 764.008 252.267 737.098 237.617 704.707C239.309 708.486 241.001 712.266 242.653 716.059C237.617 704.707 233.522 692.996 231.967 680.424C232.459 684.571 232.981 688.668 233.473 692.815C232.719 685.986 232.769 679.083 233.791 672.088C233.132 676.151 232.473 680.213 231.814 684.275C232.808 678.437 234.457 672.773 236.86 667.169C235.179 670.985 233.487 674.764 231.806 678.579C234.279 673.071 237.367 667.908 241.032 662.945C238.447 666.315 235.822 669.698 233.227 673.032C236.971 668.2 241.182 663.805 245.949 659.853C242.579 662.579 239.169 665.318 235.81 668.08C240.854 664.034 246.247 660.623 252.048 657.746C247.983 659.678 243.957 661.597 239.901 663.566C247.457 659.975 255.292 657.398 263.357 655.653C259.052 656.558 254.786 657.451 250.481 658.356C261.73 656.046 272.991 655.355 284.164 655.761C280.085 655.601 275.997 655.404 271.919 655.243C286.853 655.918 301.284 658.544 315.151 662.747C311.458 661.625 307.805 660.489 304.113 659.366C340.305 670.603 369.836 693.556 402.91 710.005C422.063 719.539 443.01 727.396 464.865 731.146C490.778 735.618 521.428 735.397 547.339 724.118C563.919 716.914 579.335 707.215 590.825 693.188C602.118 679.387 609.214 666.256 615.889 650.339C625.175 628.155 629.707 604.615 632.572 581.64C637.929 538.112 631.796 494.127 619.853 453.773C612.725 429.635 603.048 406.48 592.44 383.878C583.822 365.509 573.577 348.007 565.266 329.494C566.6 332.446 567.894 335.41 569.228 338.362C562.26 322.678 556.235 306.319 554.008 288.948C554.409 292.137 554.771 295.338 555.172 298.526C554.268 290.681 554.198 282.71 555.407 274.662C554.915 277.758 554.394 280.903 553.902 283.998C554.905 278.038 556.554 272.215 559.067 266.535C557.791 269.461 556.465 272.364 555.189 275.29C557.554 270.175 560.434 265.359 563.941 260.767C561.96 263.338 559.979 265.91 557.998 268.481C561.534 263.997 565.527 259.913 570.027 256.25C567.44 258.354 564.883 260.408 562.296 262.512C567.212 258.629 572.466 255.344 578.128 252.593C575.064 254.067 571.99 255.505 568.926 256.979C576.492 253.425 584.347 250.92 592.421 249.211C589.178 249.876 585.944 250.576 582.7 251.241C593.642 249.074 604.526 248.432 615.401 248.86C612.335 248.752 609.259 248.608 606.193 248.5C622.764 249.292 638.406 252.695 653.753 257.386C651.003 256.537 648.253 255.688 645.504 254.84C696.606 270.598 749.764 295.078 807.892 275.726C840.313 264.932 867.276 239.208 874.455 207.33C881.269 177.278 876.196 146.586 871.344 117.798C868.782 102.52 865.358 87.4158 861.15 72.6168C856.813 57.3472 852.634 42.0239 847.345 27.0772C843.699 16.8366 837.616 9.40098 827.727 4.3642C816.407 -1.45416 802.012 -0.0164217 789.855 5.76747C778.928 10.9762 771.328 18.658 766.62 29.2774C760.912 41.7791 761.931 53.6624 768.237 64.7423Z" fill="#D9D9D9" fill-opacity="0.5"/>
</svg>
