<svg width="876" height="939" viewBox="0 0 876 939" fill="none" xmlns="http://www.w3.org/2000/svg">
<path d="M2.41134 823.061C7.2926 834.906 12.318 846.131 20.0003 856.412C27.3005 866.135 34.9019 875.389 44.1 883.362C63.197 899.896 84.1735 911.425 107.523 920.805C129.124 929.451 151.724 933.717 174.797 936.42C195.502 938.826 216.614 938.407 237.311 936.005C261.537 933.161 285.309 928.77 308.537 921.188C331.557 913.7 354.078 904.057 375.413 892.598C415.507 871.068 452.531 842.135 483.332 808.661C547.721 738.639 593.399 640.495 564.277 544.699C555.98 517.356 543.043 491.372 528.277 466.965C514.951 444.889 499.887 423.859 483.112 404.259C450.626 366.286 407.826 335.578 358.995 323.053C310.503 310.632 254.445 315.448 213.593 346.454C193.691 361.526 175.988 379.734 165.19 402.571C159.966 413.632 155.234 425.221 153.119 437.311C151.81 444.879 150.631 452.645 150.416 460.385C150.187 468.944 151.405 477.542 152.692 485.966C156.88 513.324 171.542 538.069 189.47 558.641C205.832 577.421 227.513 592.448 250.282 602.41C273.408 612.549 296.941 619.862 321.795 624.145C346.978 628.494 372.464 631.365 398.015 632.163C493.487 635.139 589.54 611.613 673.876 567.093C715.859 544.94 755.112 516.651 789.703 484.141C824.733 451.241 855.594 411.039 868.715 364.144C872.513 350.516 874.582 336.226 875.427 322.148C876.281 307.524 874.721 293.158 872.705 278.683C869.042 252.271 859.903 227.287 848.706 203.165C831 165.035 804.511 130.033 773.837 101.43C710.311 42.1692 627.11 6.06759 540.379 0.671795C521.996 -0.455373 503.467 0.0472109 485.187 2.34571C478.946 2.07796 473.122 3.36686 467.751 6.20276C462.063 7.99851 457.161 11.1357 453.055 15.6504C445.484 23.3053 439.695 35.8758 440.106 46.8239C440.541 58.5806 444.411 70.8524 453.375 78.9655C461.36 86.1769 473.326 93.3303 484.548 91.9142C511.419 88.5166 538.488 88.7523 565.315 92.4284C561.487 91.9018 557.696 91.3656 553.869 90.8391C581.5 94.7653 608.5 102.275 634.263 112.988C630.765 111.519 627.314 110.077 623.816 108.609C649.966 119.605 674.678 133.781 697.276 150.929C694.302 148.661 691.281 146.366 688.306 144.098C710.115 160.759 729.831 180.037 746.732 201.699C744.418 198.71 742.068 195.732 739.754 192.743C755.413 212.953 768.558 235.078 778.41 258.668C776.904 255.075 775.398 251.482 773.892 247.889C781.134 265.504 786.46 283.788 789.005 302.701C788.513 298.836 788.031 295.008 787.502 291.153C789.277 305.305 789.48 319.53 787.645 333.679C788.164 329.97 788.684 326.261 789.167 322.562C787.384 335.456 783.893 347.916 778.978 359.98C780.393 356.575 781.818 353.205 783.234 349.799C776.46 365.932 767.337 380.832 756.789 394.755C758.995 391.836 761.21 388.953 763.452 386.024C743.319 412.255 718.673 434.961 692.687 455.272C695.576 453.023 698.502 450.765 701.391 448.516C666.186 475.837 627.462 498.28 586.378 515.535C589.836 514.104 593.32 512.627 596.778 511.196C554.266 528.912 509.513 541.02 463.858 547.007C467.531 546.527 471.205 546.047 474.925 545.593C431.227 551.21 386.953 551.2 343.313 545.161C346.821 545.657 350.33 546.153 353.865 546.602C330.59 543.294 307.388 538.375 285.592 529.432C288.823 530.778 292.019 532.133 295.241 533.442C282.432 528.067 270.211 521.408 259.088 513.059C261.869 515.185 264.641 517.275 267.422 519.401C258.479 512.524 250.401 504.677 243.38 495.85C245.563 498.64 247.71 501.441 249.894 504.231C243.622 496.173 238.384 487.488 234.39 478.082C235.801 481.468 237.213 484.853 238.624 488.239C235.307 480.203 233.04 471.886 231.885 463.233C232.355 466.871 232.826 470.508 233.296 474.146C232.384 466.397 232.481 458.65 233.551 450.913C233.055 454.422 232.569 457.967 232.074 461.475C233.296 453.581 235.45 445.981 238.471 438.576C237.125 441.808 235.743 445.049 234.397 448.281C238.071 439.692 242.801 431.712 248.412 424.272C246.286 427.053 244.17 429.87 242.008 432.661C248.068 424.868 255.015 417.924 262.767 411.811C259.94 414.005 257.149 416.188 254.322 418.381C262.489 412.08 271.339 406.876 280.817 402.862C277.395 404.283 274.01 405.695 270.588 407.116C280.448 403.077 290.778 400.503 301.362 399.025C297.688 399.505 294.014 399.985 290.341 400.465C303.105 398.869 315.918 399.044 328.664 400.712C325.12 400.226 321.575 399.74 318.021 399.218C332.784 401.315 347.144 405.383 360.931 411.078C357.653 409.706 354.375 408.334 351.143 406.988C366.994 413.722 381.806 422.519 395.5 432.934C392.673 430.781 389.891 428.655 387.064 426.503C406.048 441.166 422.587 458.579 437.305 477.451C435.121 474.66 432.938 471.869 430.781 469.033C451.607 495.929 470.225 525.59 483.418 557.014C482.016 553.665 480.614 550.316 479.212 546.966C485.771 562.902 490.622 579.412 492.883 596.538C492.432 592.973 491.971 589.372 491.484 585.816C493.391 601.33 493.18 616.907 491.158 632.387C491.637 628.96 492.116 625.534 492.585 622.071C489.871 641.772 484.257 660.931 476.637 679.269C477.93 676.129 479.269 673.016 480.561 669.876C470.332 694.112 456.676 716.706 440.791 737.647C442.828 734.967 444.864 732.287 446.901 729.608C427.073 755.524 403.89 778.769 378.191 798.848C380.856 796.776 383.521 794.703 386.186 792.631C360.323 812.676 332.031 829.453 301.825 842.125C305.003 840.808 308.181 839.491 311.349 838.137C284.536 849.28 256.439 857.08 227.636 860.801C231.011 860.362 234.386 859.924 237.796 859.475C212.448 862.62 186.7 862.535 161.361 859.198C164.587 859.652 167.768 860.081 170.993 860.536C152.86 858.022 135.064 853.44 118.1 846.461C120.984 847.667 123.832 848.883 126.706 850.053C113.687 844.617 101.345 837.797 90.0649 829.296C92.4958 831.128 94.9002 833.005 97.3311 834.837C88.4338 827.987 80.3754 820.213 73.4625 811.356C75.3485 813.761 77.1886 816.139 79.0746 818.544C73.8033 811.614 69.3426 804.234 65.7456 796.313C62.5165 789.185 52.4334 782.109 44.9956 780.416C37.2655 778.646 29.9002 779.106 22.5695 782.157C15.7985 784.98 9.29798 789.826 5.81017 796.503C1.95914 804.286 -1.00017 814.818 2.41134 823.061Z" fill="#D9D9D9" fill-opacity="0.5"/>
</svg>
