<?xml version="1.0" encoding="UTF-8"?>
<svg id="Capa_2" data-name="Capa 2" xmlns="http://www.w3.org/2000/svg" viewBox="0 0 402.04 126.18">
  <g id="Capa_1-2" data-name="Capa 1">
    <g>
      <path d="M0,41.67c7.31,0,14.63,.24,21.93-.09,9.27-.42,15.19,4.22,18.8,12.01,6.53,14.06,12.62,28.33,19.07,42.43,2.04,4.45,4.63,8.65,7.12,13.23,5.35-6.89,6.23-14.07,2.61-20.93-5.46-10.34-11.83-20.21-17.83-30.27-.59-.99-1.36-1.87-1.94-2.87-3.94-6.88-1.59-12.49,6.23-13.2,7.37-.67,14.85-.14,22.54-.14V124.17c-10.51-.56-21.1-.39-31.39-2.06-3.45-.56-7.17-5.29-8.98-8.98-6.83-13.92-12.85-28.22-19.33-42.31-1.65-3.58-3.76-6.97-5.88-10.31-.59-.93-2.23-2.11-2.94-1.87-1.13,.39-2.42,1.74-2.69,2.9-1.58,6.83-.97,13.59,2.56,19.67,5.06,8.71,10.6,17.14,15.81,25.76,2.34,3.87,6.34,7.76,3.78,12.61-2.54,4.8-8.01,3.96-12.56,4.19-5.63,.28-11.29,.19-16.93,.25V41.67Z"/>
      <path d="M298.26,0c7.21,2.34,12.42,6.4,13.53,14.51,1.22,8.86-4.38,17.63-12.57,19.16-10.27,1.92-18.51-2.75-20.93-11.86-2.59-9.76,1.88-17.96,11.37-20.89,.58-.18,1.08-.61,1.62-.92,2.33,0,4.66,0,6.98,0Z"/>
      <path d="M265.27,122.64c-21.69,4.7-27.3,2.73-32.48-7.37-.31,.1-.72,.1-.9,.31-6.59,7.62-14.6,12.33-24.94,9.99-12.54-2.84-21.77-10.32-25-22.92-4.61-17.98-1.19-35.18,8.82-50.66,6.83-10.56,19.27-12.82,31.89-6.99,3.39,1.56,6.67,3.35,10.6,5.33,.12-10.78,3.23-21.15-6.85-29.71,11.5-4.38,22.18-8.66,33.03-12.46,4.15-1.45,5.68,1.54,5.73,5.2,.1,6.77,.09,13.55,.09,20.32,0,28.59,0,57.17,0,85.76,0,.97,0,1.95,0,3.2Zm-30.5-40.92c-.8-5.39-1.31-12.33-3.08-18.92-.75-2.8-4.59-7.19-6.25-6.87-3.81,.72-7.21,3.83-10.65,6.15-.68,.46-.84,1.74-1.18,2.66-4.4,12.19-4.76,24.41-.32,36.68,1.91,5.28,6.43,9.44,10.58,8.98,5.47-.61,7.72-4.93,8.62-9.54,1.14-5.79,1.44-11.73,2.28-19.14Z"/>
      <path d="M331.52,73.7c-7.73-12.63-5.78-21.89,6.78-27.66,17.35-7.96,34.72-6.18,50.86,3.56,8.13,4.9,12.21,13.41,12.55,22.63,.61,16.65,.17,33.35,.17,50.43-12.49,3.51-24.1,3.37-32.91-6.44-7.15,3.17-13.65,7-20.68,8.94-8.29,2.28-15.84-.64-21.11-7.64-5.47-7.24-6.53-15.52-1.78-23.21,7.96-12.89,18.04-23.68,33.74-27.43,2.72-.65,5.46-1.5,7.95-2.74,4.67-2.34,5.2-5.73,1.85-9.59-5.34-6.15-10.55-6.96-16.8-1.54-5.99,5.19-11.3,11.15-16.9,16.78-1.24,1.25-2.42,2.54-3.72,3.91Zm35.99,.77c-7.43,.46-11.63,4.1-12.48,11.44-.58,5.05-1.71,10.07-1.94,15.13-.09,1.93,1.16,4.53,2.66,5.82,5.37,4.61,13.24,1.96,14.64-5.72,1.64-8.94,2.53-18.31-2.89-26.67Z"/>
      <path d="M169.43,123.37c-12.05-.41-25.04,5.75-33.74-7.87-3.17,2.08-5.99,4.05-8.92,5.82-6.62,3.98-13.62,5.95-21.38,3.76-12.7-3.58-19.43-17.49-13.36-29.14,7.19-13.79,17.61-24.28,33.33-28.45,3.18-.84,6.39-1.91,9.27-3.45,3.93-2.09,4.4-5.67,1.71-9.14-4.58-5.9-10.64-7.01-16.37-2.19-5.43,4.56-10.27,9.83-15.31,14.84-1.74,1.73-3.32,3.62-5.01,5.48-7.79-10.2-5.88-23.08,7.51-27.51,15.51-5.13,30.41-5.96,45.2,2.02,10.56,5.7,16.49,14.58,16.91,26.24,.6,16.33,.15,32.69,.15,49.6Zm-35.16-48.96c-16.61,2.4-18.84,21.26-13.05,30.87,1.42,2.36,5.87,4.15,8.81,3.99,2.36-.13,5.97-3.24,6.56-5.63,2.43-9.87,4.23-19.99-2.32-29.23Z"/>
      <path d="M310.23,41.5V124.68h-30.8c0-1.8,.03-3.54,0-5.28-.42-20.15-.76-40.3-1.37-60.45-.1-3.18,.7-4.64,3.71-5.8,9.39-3.62,18.63-7.6,28.45-11.66Z"/>
    </g>
  </g>
</svg>