<?xml version="1.0" encoding="UTF-8"?>
<svg id="Capa_2" data-name="Capa 2" xmlns="http://www.w3.org/2000/svg" viewBox="0 0 98.81 58.08">
  <g id="Capa_1-2" data-name="Capa 1">
    <path d="M4.46,12.17c-1.75,5.33-1.06,10.76,.79,15.86,1.85,5.12,4.65,9.9,7.02,14.83,1.36,2.84,3.02,5.6,3.94,8.57,1.09,3.51-.68,6.05-4.27,6.39-4.09,.38-8.24,.09-11.94,.09V.37C5.04,.37,10.7-.53,15.83,.73c2.69,.67,5.25,4.82,6.45,7.94,3.82,9.92,6.93,20.1,10.42,30.15,.95,2.73,2.26,5.34,3.94,9.26,3.64-6.11,2.74-11.36,1.25-15.88-2.1-6.42-5.56-12.39-8.48-18.53-.78-1.65-1.96-3.14-2.53-4.85-1.81-5.48,.18-8.36,6.01-8.67,3.45-.19,6.92-.03,10.21-.03V57.85c-4.82,0-9.96,.31-15.05-.1-4.18-.34-6.06-3.79-7.32-7.35-3.76-10.65-7.38-21.35-11.17-31.99-.84-2.35-2.16-4.52-3.26-6.77-.61,.18-1.22,.35-1.83,.53Z"/>
    <path d="M79.21,11.84c-3.8,13.41-7.59,26.82-11.39,40.23-.49,.07-.99,.14-1.48,.2-1.04-1.88-2.35-3.67-3.06-5.67-3.01-8.44-5.75-16.98-8.81-25.4-1.19-3.27-2.96-6.33-5.06-10.72-3.31,5.69-2.99,10.32-1.58,14.29,2.31,6.52,5.46,12.78,8.69,18.92,6.32,12.01,4.99,14.41-8.57,14.39-1.65,0-3.3,0-4.86,0V.17c5.54,0,11.37-.38,17.09,.22,1.82,.19,4.05,2.74,4.89,4.72,2.19,5.16,3.72,10.61,6.02,17.44,1.97-6.13,3.7-10.87,4.99-15.72,1.32-4.94,4-7.23,9.31-6.78,4.6,.39,9.26,.08,13.41,.08V57.63h-16.34c.72-15.28,1.27-30.46,0-45.56-1.08-.07-2.17-.15-3.25-.22Z"/>
  </g>
</svg>