<?xml version="1.0" encoding="UTF-8"?><svg id="Capa_2" xmlns="http://www.w3.org/2000/svg" viewBox="0 0 330.75 302.53"><defs><style>.cls-1{fill:#fff;}.cls-2{letter-spacing:-.01em;}.cls-2,.cls-3{font-family:Montserrat-Bold, Montserrat;}.cls-3{letter-spacing:0em;}.cls-4{font-size:32px;}.cls-4,.cls-5{fill:#383780;}.cls-6{font-family:Montserrat-Light, Montserrat;}</style></defs><g id="Capa_1-2"><g><path class="cls-5" d="M209.89,0c.9,4.01,1.51,8.12,2.74,12.02,3.77,11.89,13.17,17.06,24.41,19.87,1.03,.26,2.07,.47,3.1,.71,.64,.15,1.28,.32,2.44,.61v4.2c0,39.23-.05,78.46,.09,117.69,.01,3.14-1.1,4.72-3.65,6.2-23.44,13.59-46.83,27.27-70.2,40.98-2.41,1.42-4.31,2.1-7.14,.38-23.59-14.38-47.29-28.58-71.02-42.73-2.09-1.25-2.92-2.53-2.9-4.98,.26-39.49,.45-78.98,.53-118.48,0-3.24,.96-4.26,4.22-4.49,15.07-1.07,23.99-9.46,26.46-24.48,.02-.13,.01-.27,.04-.4,1.75-7.17-.47-6.39,7.56-6.46,12.5-.11,25-.08,37.5-.15C165.51,.48,166.94,.17,168.38,0c13.84,0,27.68,0,41.51,0ZM121.54,2.2c-.48,2.61-.8,4.58-1.21,6.53-3.14,14.83-11.28,22.95-25.5,24.42-4.54,.47-5.25,2.24-5.25,6.17-.01,38.17-.15,76.34-.36,114.51-.01,2.62,.89,4,3.11,5.33,23.4,13.93,46.74,27.97,70.04,42.07,2.04,1.23,3.45,1.03,5.4-.11,23.25-13.66,46.53-27.28,69.88-40.77,2.67-1.54,3.54-3.27,3.53-6.31-.11-38.04-.16-76.08,.05-114.12,.02-4.5-1.38-6.12-5.62-7.03-14.81-3.16-23.92-12.14-26.12-27.37-.44-3.04-1.72-3.51-4.41-3.49-24.6,.13-49.21,.13-73.82,.16-3.17,0-6.34,0-9.73,0Z"/><path class="cls-1" d="M121.54,2.2c3.4,0,6.57,0,9.73,0,24.61-.03,49.21-.03,73.82-.16,2.69-.01,3.97,.45,4.41,3.49,2.21,15.23,11.32,24.21,26.12,27.37,4.24,.9,5.64,2.53,5.62,7.03-.21,38.04-.16,76.08-.05,114.12,0,3.04-.86,4.76-3.53,6.31-23.35,13.49-46.63,27.11-69.88,40.77-1.95,1.14-3.36,1.34-5.4,.11-23.3-14.1-46.64-28.13-70.04-42.07-2.23-1.33-3.13-2.7-3.11-5.33,.2-38.17,.35-76.34,.36-114.51,0-3.93,.7-5.7,5.25-6.17,14.23-1.47,22.36-9.59,25.5-24.42,.41-1.95,.73-3.91,1.21-6.53Zm114.6,36.22c-17.07-3.87-28.6-13.32-31.48-31.03H125.76c-3.21,17.51-12.47,28.76-30.67,31.15-.08,1.44-.2,2.62-.2,3.8-.21,35.92-.36,71.84-.68,107.76-.03,3.19,.96,4.94,3.7,6.56,21.38,12.67,42.68,25.46,63.93,38.34,2.41,1.46,4.14,1.36,6.5-.03,21.52-12.69,43.08-25.29,64.71-37.79,2.41-1.39,3.18-2.92,3.17-5.63-.09-36.45-.06-72.91-.06-109.36v-3.78Z"/><path class="cls-5" d="M236.15,38.42v3.78c0,36.45-.03,72.91,.06,109.36,0,2.71-.77,4.24-3.17,5.63-21.63,12.49-43.19,25.1-64.71,37.79-2.36,1.39-4.09,1.5-6.5,.03-21.25-12.88-42.55-25.67-63.93-38.34-2.74-1.62-3.73-3.37-3.7-6.56,.32-35.92,.47-71.84,.68-107.76,0-1.18,.12-2.35,.2-3.8,18.21-2.39,27.47-13.65,30.67-31.15h78.91c2.87,17.71,14.41,27.15,31.48,31.03Zm-15.94,57.75c-.01-29.38-24.32-53.79-53.54-53.77-29.39,.02-53.48,24.19-53.52,53.69-.04,29.62,23.85,53.8,53.25,53.91,29.54,.11,53.83-24.19,53.81-53.83Zm-63.74,55.01c0,8.03-.04,16.1,.08,24.17,0,.58,1.11,1.63,1.72,1.65,5.66,.13,11.33,.08,17.08,.08v-25.89h-18.88Zm-11.13-106.53h-34.63v20.75c5.67,.8,10.49,1.12,14.02-4.65,2.07-3.38,5.58-6.02,8.82-8.52,3.41-2.63,7.25-4.7,11.79-7.58Zm42.43,.23c1.99,1.1,3.34,1.62,4.42,2.48,5.67,4.53,11.87,8.61,16.7,13.93,3.19,3.51,6.11,4.78,10.49,4.52,2.36-.14,3.34-.81,3.28-3.25-.12-4.92-.14-9.85,0-14.77,.08-2.64-.93-3.45-3.5-3.42-9.45,.11-18.89,.03-28.34,.05-.72,0-1.44,.2-3.05,.44Zm-31.32-3.6h18.91V20.97c-5.75,0-11.41-.07-17.07,.09-.63,.02-1.74,1.31-1.75,2.03-.14,6.07-.08,12.14-.08,18.19Z"/><path class="cls-1" d="M220.21,96.17c.01,29.64-24.28,53.93-53.81,53.83-29.4-.11-53.29-24.29-53.25-53.91,.04-29.5,24.13-53.67,53.52-53.69,29.22-.02,53.53,24.39,53.54,53.77Zm-22.35-34.01l.15,.15c-3.12-4.47-7.8-6.73-13.09-9.95v85.8c12.25-4.95,26.01-22.55,27.09-34.92,.09-1.06-1.01-2.59-1.98-3.32-2.78-2.08-5.79-3.87-9.11-6.03,1.91-1.16,3.14-1.92,4.38-2.66,6.82-4.07,6.98-4.13,4.25-11.48-2.5-6.73-5.57-13.2-11.69-17.58Zm-48-8.61c-17.5,6.08-32.77,30.89-28.36,46.07,2.97,0,6.02,0,9.07,0q10.04,0,10.06,9.91c0,3.58,0,7.16,0,10.74l-1.11,.12c-1.57-2.12-3.47-4.07-4.64-6.4-2.64-5.26-6.93-5.27-11.74-4.46,2.05,11.75,15.63,26.42,26.91,28.96,.09-1.2,.24-2.37,.25-3.54,.06-13.57-.03-27.14,.23-40.7,.07-3.68-1.25-4.56-4.61-4.39-4.73,.24-9.48,.06-14.5,.06-.12-8.34,2.59-14.67,9.01-20.58v11.9h9.43v-27.7Zm21.83,29.04c2.98-.15,5.28-.27,7.54-.39v-30.46c-15.89,6.39-26.48,23.97-26.31,42.79,.16,18.72,11.88,37.85,26.43,44.66v-28.93c-.98-.12-1.63-.18-2.28-.28-3.65-.57-5.55,.58-5.01,4.66,.27,2.03,.05,4.12,.05,6.67-12.52-10.27-15.63-39.46-.41-51.81v13.09Z"/><path class="cls-1" d="M156.47,151.18h18.88v25.89c-5.75,0-11.42,.05-17.08-.08-.61-.01-1.71-1.07-1.72-1.65-.11-8.07-.08-16.13-.08-24.17Z"/><path class="cls-1" d="M145.34,44.65c-4.54,2.88-8.38,4.94-11.79,7.58-3.23,2.5-6.74,5.14-8.82,8.52-3.53,5.77-8.35,5.45-14.02,4.65v-20.75h34.63Z"/><path class="cls-1" d="M187.76,44.88c1.62-.24,2.33-.44,3.05-.44,9.45-.02,18.89,.06,28.34-.05,2.57-.03,3.58,.78,3.5,3.42-.15,4.92-.13,9.85,0,14.77,.06,2.44-.92,3.11-3.28,3.25-4.37,.26-7.3-1.01-10.49-4.52-4.83-5.32-11.03-9.4-16.7-13.93-1.08-.86-2.43-1.38-4.42-2.48Z"/><path class="cls-5" d="M149.86,53.54v27.7h-9.43v-11.9c-6.41,5.91-9.13,12.24-9.01,20.58,5.02,0,9.77,.18,14.5-.06,3.36-.17,4.68,.71,4.61,4.39-.26,13.56-.17,27.13-.23,40.7,0,1.17-.16,2.33-.25,3.54-11.27-2.54-24.85-17.21-26.91-28.96,4.8-.81,9.1-.8,11.74,4.46,1.17,2.32,3.07,4.28,4.64,6.4l1.11-.12c0-3.58,0-7.16,0-10.74q-.02-9.91-10.06-9.91c-3.05,0-6.1,0-9.07,0-4.42-15.17,10.85-39.98,28.36-46.07Zm-.91,26.9v-25.08c-16.45,5.99-27.96,25.43-26.5,43.22,5.11,0,10.26,.13,15.41-.05,2.9-.1,4.02,.75,3.91,3.81-.22,5.97-.04,11.96-.09,17.95,0,.94-.3,1.87-.67,3.94-2.84-3.87-5.24-6.68-7.12-9.8-2.22-3.68-5.04-5.17-9.21-3.86,2.37,10.95,15.03,24.56,24.38,26.18v-45.79h-18.67c-.74-9.55,4.28-19.83,11.25-23.25v12.75h7.3Z"/><path class="cls-5" d="M171.69,82.58v-13.09c-15.21,12.35-12.1,41.53,.41,51.81,0-2.55,.22-4.64-.05-6.67-.54-4.08,1.37-5.23,5.01-4.66,.64,.1,1.3,.16,2.28,.28v28.93c-14.54-6.81-26.26-25.94-26.43-44.66-.16-18.82,10.42-36.4,26.31-42.79v30.46c-2.26,.12-4.56,.24-7.54,.39Zm6.66-28.86c-13.04,3.43-24.49,22.58-24.39,40.53,.09,17.56,12.93,40,24.48,42.89v-26h-5.42v12.89c-16.92-13.53-16.63-49.75,.18-57.25v14.42h5.15v-27.48Z"/><path class="cls-5" d="M197.86,62.15c6.12,4.38,9.19,10.84,11.69,17.58,2.73,7.35,2.56,7.41-4.25,11.48-1.24,.74-2.48,1.5-4.38,2.66,3.31,2.16,6.32,3.94,9.11,6.03,.98,.73,2.08,2.26,1.98,3.32-1.08,12.37-14.84,29.97-27.09,34.92V52.35c5.29,3.22,9.97,5.48,13.09,9.95-3.62-2.47-7.24-4.95-11.95-8.17v82.49c12.91-7.62,21.23-18.43,24.73-32.82,.23-.93-.87-2.62-1.82-3.32-3.15-2.31-6.51-4.33-10.1-6.65,1.69-1.02,2.93-1.78,4.18-2.51,8.27-4.84,8.6-4.99,4.38-13.8-2.59-5.41-6.34-10.26-9.57-15.36Z"/><path class="cls-1" d="M148.94,80.44h-7.3v-12.75c-6.97,3.42-11.98,13.71-11.25,23.25h18.67v45.79c-9.35-1.61-22-15.23-24.38-26.18,4.17-1.31,6.99,.18,9.21,3.86,1.88,3.12,4.27,5.93,7.12,9.8,.36-2.08,.66-3.01,.67-3.94,.04-5.98-.13-11.97,.09-17.95,.11-3.07-1.01-3.92-3.91-3.81-5.15,.18-10.3,.05-15.41,.05-1.47-17.79,10.04-37.23,26.5-43.22v25.08Z"/><path class="cls-1" d="M178.35,53.72v27.48h-5.15v-14.42c-16.81,7.5-17.1,43.71-.18,57.25v-12.89h5.42v26c-11.55-2.89-24.39-25.33-24.48-42.89-.09-17.94,11.36-37.1,24.39-40.53Z"/><path class="cls-1" d="M197.86,62.15c3.23,5.1,6.98,9.95,9.57,15.36,4.21,8.81,3.89,8.96-4.38,13.8-1.25,.73-2.49,1.49-4.18,2.51,3.59,2.33,6.95,4.34,10.1,6.65,.95,.7,2.05,2.39,1.82,3.32-3.5,14.39-11.82,25.2-24.73,32.82V54.13c4.71,3.22,8.33,5.7,11.95,8.17l-.15-.15Zm-3.71,58.89c4.87-3.49,6.84-7.97,8.45-12.63,.25-.72,.1-2.07-.4-2.49-2.47-2.06-5.11-3.91-8.05-6.1v21.21Zm0-32.87c2.8-1.86,5.09-3.19,7.13-4.83,.74-.59,1.44-2.03,1.25-2.87-1.09-4.87-3.6-8.8-8.38-11.64v19.34Z"/><path class="cls-5" d="M194.15,121.05v-21.21c2.94,2.19,5.58,4.04,8.05,6.1,.5,.42,.66,1.76,.4,2.49-1.62,4.66-3.59,9.14-8.45,12.63Zm1-18.58v16.1c8.22-6.63,8.16-12.58,0-16.1Z"/><path class="cls-5" d="M194.15,88.18v-19.34c4.78,2.84,7.3,6.77,8.38,11.64,.19,.85-.51,2.28-1.25,2.87-2.05,1.64-4.33,2.97-7.13,4.83Zm1.08-2.79l.93,.67c1.86-1.76,5.29-3.54,5.27-5.27-.05-3.78-2.28-7.25-6.19-9.8v14.4Z"/><path class="cls-1" d="M195.15,102.47c8.16,3.52,8.22,9.46,0,16.1v-16.1Z"/><path class="cls-1" d="M195.23,85.38v-14.4c3.91,2.55,6.14,6.02,6.19,9.8,.02,1.73-3.4,3.51-5.27,5.27l-.93-.67Z"/></g><text class="cls-4" transform="translate(10.29 257.06)"><tspan class="cls-2" x="0" y="0">C</tspan><tspan class="cls-3" x="21.76" y="0">olegio Parroquial</tspan><tspan class="cls-6" x="301.4" y="0"> </tspan><tspan class="cls-6"><tspan x="-10.29" y="38.4">San Carlos Borromeo</tspan></tspan></text></g></svg>