<svg width="1232" height="514" viewBox="0 0 1232 514" fill="none" xmlns="http://www.w3.org/2000/svg">
<path d="M1231.92 495.929C1231.9 496.523 1230.95 497.526 1230.32 497.624C1221.48 498.973 1217.14 504.491 1215.83 513.251H1196.97C1194.19 502.376 1188.8 497.297 1180.38 497.519C1172.09 497.736 1166.79 502.914 1164.39 513.425H1145.85C1141.63 501.361 1136.59 496.851 1128.3 497.575C1119.94 498.311 1114.89 503.483 1113.24 513.19H1094.36C1090.84 501.751 1085.88 497.173 1077.49 497.556C1069.12 497.94 1063.87 503.13 1061.79 513.406C1055.94 513.406 1049.99 513.468 1044.05 513.295C1043.48 513.282 1042.62 511.841 1042.45 510.956C1041.18 504.058 1036.06 498.794 1029.44 497.779C1022.15 496.666 1015.46 500.043 1012.36 506.632C1011.46 508.556 1011.09 510.734 1010.29 513.418C1009.29 513.418 1007.91 513.425 1006.52 513.418C1003.85 513.418 1001.17 513.425 998.49 513.412C996.433 513.412 993.93 514.087 992.448 513.146C991.144 512.317 990.99 509.682 990.322 507.838C987.962 501.355 981.178 497.018 974.321 497.594C966.783 498.225 960.957 503.471 959.647 510.82C959.518 511.519 959.45 512.231 959.295 513.388C953.253 513.388 947.217 513.431 941.187 513.301C940.717 513.289 940 512.076 939.858 511.334C938.277 502.994 932.123 497.563 924.11 497.538C916.115 497.513 909.61 503.081 908.362 511.253C908.09 513.016 907.422 513.462 905.804 513.437C900.867 513.375 895.919 513.369 890.982 513.443C889.339 513.468 888.715 512.973 888.443 511.235C887.207 503.205 880.844 497.655 872.985 497.525C864.922 497.389 858.528 502.976 856.897 511.346C856.742 512.15 855.463 513.301 854.672 513.332C849.631 513.511 844.583 513.394 839.542 513.443C838.078 513.456 837.417 513.066 837.145 511.433C835.872 503.687 831.399 499.357 823.404 497.643C822.651 497.482 821.52 496.517 821.501 495.898C821.415 492.335 821.403 488.766 821.403 485.171H821.341C821.347 488.815 821.335 492.477 821.26 496.14C821.248 496.734 820.29 497.736 819.66 497.835C810.825 499.183 806.488 504.702 805.178 513.462H786.31C783.536 502.586 778.142 497.507 769.728 497.73C761.43 497.946 756.129 503.124 753.738 513.635H735.191C730.978 501.571 725.93 497.062 717.639 497.785C709.28 498.522 704.226 503.693 702.588 513.4H683.708C680.186 501.961 675.225 497.383 666.835 497.767C658.463 498.15 653.218 503.341 651.13 513.616C645.279 513.616 639.335 513.678 633.398 513.505C632.824 513.493 631.959 512.051 631.792 511.167C630.525 504.269 625.404 499.004 618.787 497.989C611.496 496.876 604.799 500.254 601.704 506.842C600.802 508.766 600.431 510.944 599.634 513.629C598.633 513.629 597.249 513.635 595.865 513.629C593.19 513.629 590.509 513.635 587.834 513.623C585.776 513.616 583.268 514.297 581.791 513.357C580.488 512.528 580.333 509.892 579.66 508.055C577.306 501.565 570.522 497.229 563.664 497.804C556.127 498.435 550.301 503.687 548.991 511.03C548.861 511.73 548.793 512.441 548.639 513.598C542.596 513.598 536.56 513.641 530.53 513.511C530.061 513.499 529.344 512.286 529.202 511.544C527.62 503.205 521.467 497.773 513.453 497.748C505.459 497.723 498.953 503.291 497.699 511.464C497.433 513.227 496.766 513.672 495.147 513.647C490.211 513.586 485.262 513.579 480.326 513.654C478.682 513.678 478.058 513.183 477.786 511.445C476.551 503.415 470.187 497.866 462.328 497.736C454.266 497.6 447.871 503.186 446.24 511.556C446.086 512.361 444.807 513.511 444.016 513.542C438.975 513.722 433.927 513.604 428.886 513.654C427.421 513.666 426.754 513.276 426.488 511.643C425.216 503.898 420.743 499.567 412.748 497.853C411.994 497.693 410.864 496.727 410.845 496.109C410.758 492.477 410.746 488.84 410.746 485.171H410.653C410.653 488.864 410.647 492.576 410.567 496.288C410.555 496.882 409.597 497.884 408.973 497.977C400.132 499.332 395.795 504.844 394.491 513.604H375.623C372.849 502.728 367.455 497.655 359.04 497.878C350.737 498.095 345.442 503.273 343.045 513.777H324.498C320.29 501.714 315.236 497.204 306.951 497.934C298.592 498.664 293.538 503.842 291.901 513.542H273.02C269.493 502.103 264.538 497.526 256.148 497.909C247.77 498.293 242.525 503.483 240.443 513.759C234.592 513.759 228.648 513.827 222.711 513.654C222.136 513.635 221.265 512.2 221.105 511.315C219.832 504.417 214.71 499.153 208.099 498.138C200.803 497.018 194.106 500.402 191.01 506.985C190.108 508.909 189.744 511.086 188.947 513.777H185.172C182.497 513.777 179.821 513.777 177.146 513.771C175.083 513.759 172.581 514.439 171.104 513.505C169.8 512.676 169.64 510.034 168.972 508.197C166.612 501.714 159.835 497.371 152.971 497.946C145.433 498.583 139.607 503.829 138.297 511.173C138.174 511.878 138.106 512.589 137.945 513.74C131.903 513.74 125.873 513.79 119.843 513.654C119.373 513.641 118.651 512.429 118.515 511.686C116.927 503.347 110.779 497.921 102.766 497.891C94.7716 497.866 88.2597 503.44 87.0117 511.612C86.7398 513.375 86.0726 513.821 84.4601 513.796C79.5175 513.728 74.5749 513.728 69.6322 513.802C67.995 513.827 67.3648 513.332 67.0992 511.593C65.8635 503.557 59.4999 498.014 51.635 497.878C43.5785 497.748 37.1779 503.328 35.553 511.705C35.3923 512.509 34.1134 513.66 33.3226 513.691C28.2874 513.87 23.2397 513.753 18.1921 513.796C16.7278 513.808 16.0668 513.418 15.8011 511.791C14.5284 504.04 10.0491 499.709 2.05447 498.002C1.30691 497.841 0.170106 496.87 0.157749 496.257C0.00947123 490.405 0.0712538 484.553 0.0712538 478.589C6.38543 477.933 11.1983 475.39 14.1391 469.915C19.2115 460.444 13.4657 448.523 2.87618 446.871C0.639653 446.518 -0.0523113 445.795 0.00947123 443.58C0.151571 438.241 0.052719 432.89 0.052719 427.396C1.44283 427.099 2.62287 426.889 3.78439 426.592C11.3404 424.693 16.215 418.215 15.9556 410.464C15.6961 402.991 10.3086 396.656 2.80204 395.499C0.479019 395.146 -0.0399548 394.299 0.0156495 392.17C0.151571 387.122 0.0712538 382.068 0.0897886 377.014C0.0897886 376.717 0.22571 376.426 0.275136 376.222C2.7588 375.399 5.30424 374.886 7.54077 373.747C13.7623 370.586 16.9441 363.837 15.7826 356.895C14.7075 350.474 9.36335 345.086 2.74644 344.127C0.670545 343.824 -0.0399548 343.168 0.00947123 341.071C0.139215 335.626 0.052719 330.176 0.052719 324.936C2.70937 324.076 5.14978 323.588 7.31835 322.53C13.682 319.412 16.9688 312.582 15.764 305.505C14.6705 299.071 9.33864 293.72 2.69701 292.792C0.571692 292.495 -0.0461331 291.74 0.00329298 289.68C0.12068 284.236 0.0403625 278.792 0.0403625 274.406C4.21686 272.203 8.14624 270.916 11.0438 268.423C15.8876 264.247 17.1418 258.469 15.2265 252.339C13.3174 246.214 8.99883 242.613 2.67848 241.314C1.72703 241.122 0.207175 240.157 0.188641 239.502C-0.00906353 233.655 0.0712538 227.797 0.0712538 221.846C6.47811 221.153 11.3651 218.561 14.2627 212.894C19.1065 203.435 13.373 191.786 2.88236 190.122C0.645832 189.763 -0.0461331 189.057 0.00947123 186.843C0.151571 181.498 0.0588973 176.14 0.0588973 170.628C1.58493 170.288 2.96886 170.034 4.32189 169.663C11.637 167.665 16.3139 161.107 15.9308 153.442C15.5663 146.074 10.1727 139.844 2.84529 138.756C0.584049 138.421 -0.0523113 137.623 0.00329298 135.433C0.139215 130.088 0.0465408 124.743 0.0465408 119.565C2.74644 118.668 5.2857 118.142 7.52223 117.01C13.719 113.892 16.9255 107.112 15.7702 100.165C14.7137 93.774 9.351 88.3361 2.76497 87.3772C0.707614 87.074 -0.0461331 86.443 0.00947123 84.3335C0.151571 79.1802 0.0774321 74.0269 0.102145 68.8674C0.108323 68.5704 0.250423 68.2797 0.36781 67.828C1.40576 67.6177 2.49931 67.4259 3.5805 67.1785C11.0871 65.4524 16.1594 58.901 15.9741 51.2113C15.7949 43.5958 10.2901 37.1557 2.70319 36.0174C0.608762 35.7019 -0.0399548 34.9781 0.0156495 32.9118C0.151571 27.7585 0.0774321 22.6052 0.108323 17.4519C0.108323 17.1549 0.26278 16.8642 0.380167 16.4497C9.62902 15.3176 14.9732 10.121 16.1965 0.618606H35.1638C37.6845 11.2964 43.1955 16.4064 51.8327 16.227C60.0312 16.0599 65.567 10.6344 67.5625 0.630979H86.6719C87.1909 6.48335 89.6498 11.1974 94.7654 14.1174C104.583 19.7038 116.575 13.9504 118.379 2.7653C118.669 0.946487 119.268 0.321657 121.079 0.352589C125.916 0.445386 130.76 0.439199 135.597 0.358776C137.327 0.327844 138.026 0.78564 138.334 2.69106C139.626 10.6963 146.144 16.227 153.947 16.2517C161.942 16.2827 168.219 10.8015 169.807 2.57352C169.967 1.75691 171.03 0.50725 171.703 0.488691C177.449 0.321657 183.207 0.395894 189.101 0.395894C189.466 1.97962 189.707 3.37157 190.096 4.71403C192.234 12.0202 198.801 16.6291 206.437 16.2146C213.684 15.8187 219.887 10.2942 220.981 2.93233C221.278 0.946487 221.945 0.33403 223.872 0.377335C229.124 0.488691 234.375 0.426827 239.621 0.451572C239.911 0.451572 240.195 0.624793 239.676 1.21869C241.715 4.80064 243.21 8.88368 245.923 11.8408C250.068 16.3445 255.746 17.3591 261.597 15.4475C267.565 13.4988 271.253 9.21775 272.31 3.01894C272.668 0.890809 273.41 0.321657 275.43 0.364962C280.873 0.482504 286.322 0.408267 291.901 0.408267C292.426 5.06665 293.847 9.11258 297.289 12.1006C301.922 16.128 307.304 17.3838 313.124 15.3794C318.925 13.3874 322.613 9.19919 323.596 3.09937C323.979 0.767081 324.893 0.321657 326.981 0.371149C332.319 0.488691 337.664 0.408267 342.934 0.408267C346.128 11.7109 351.237 16.4373 359.843 16.2332C367.962 16.0352 373.219 10.8819 375.604 0.61242H394.485C395.708 9.76834 400.774 15.2619 410.4 16.4188V24.2817H410.796C410.796 21.9556 410.789 19.6295 410.802 17.3034C410.802 17.0127 410.956 16.7157 411.074 16.3074C420.316 15.1753 425.667 9.97868 426.89 0.476318H445.851C448.372 11.1541 453.889 16.2579 462.52 16.0847C470.718 15.9115 476.254 10.4922 478.256 0.482504H497.359C497.878 6.34106 500.343 11.0551 505.459 13.9689C515.276 19.5615 527.262 13.8019 529.066 2.62301C529.363 0.798012 529.962 0.173183 531.772 0.210301C536.61 0.303098 541.447 0.290725 546.285 0.210301C548.021 0.185556 548.713 0.637165 549.022 2.54877C550.319 10.5478 556.831 16.0785 564.64 16.1094C572.635 16.1404 578.906 10.653 580.5 2.43123C580.654 1.60844 581.723 0.364962 582.39 0.346403C588.142 0.179369 593.901 0.24742 599.795 0.24742C600.153 1.83115 600.394 3.2231 600.789 4.57174C602.921 11.8779 609.488 16.4806 617.125 16.0661C624.378 15.6764 630.575 10.1457 631.674 2.79005C631.965 0.804199 632.632 0.191742 634.566 0.228861C639.811 0.340216 645.063 0.278352 650.314 0.309284C650.598 0.309284 650.889 0.482504 650.364 1.0764C652.409 4.65216 653.898 8.73521 656.616 11.6923C660.756 16.2022 666.44 17.2106 672.284 15.299C678.252 13.3503 681.941 9.06928 682.997 2.87047C683.362 0.748521 684.103 0.179369 686.123 0.222674C691.567 0.340216 697.016 0.259793 702.588 0.259793C703.114 4.91818 704.541 8.96411 707.976 11.9522C712.616 15.9795 717.991 17.2354 723.817 15.2372C729.618 13.2389 733.301 9.0569 734.289 2.95708C734.666 0.618606 735.587 0.173183 737.669 0.222674C743.013 0.346403 748.357 0.265979 753.627 0.265979C756.821 11.5686 761.925 16.295 770.531 16.0847C778.655 15.8929 783.913 10.7334 786.298 0.470132H805.178C806.396 9.62606 811.462 15.1134 821.087 16.2703V24.2817H821.452C821.452 21.8876 821.446 19.4872 821.452 17.0931C821.452 16.8023 821.606 16.5054 821.724 16.0971C830.967 14.965 836.317 9.76834 837.54 0.265979H856.501C859.028 10.9438 864.539 16.0476 873.17 15.8744C881.369 15.7011 886.904 10.2818 888.906 0.272166H908.016C908.528 6.13072 910.993 10.8448 916.109 13.7586C925.926 19.3511 937.912 13.5916 939.716 2.41267C940.013 0.587674 940.612 -0.0371561 942.422 -3.7515e-05C947.26 0.092759 952.097 0.0803861 956.941 -3.7515e-05C958.671 -0.0247833 959.363 0.426827 959.672 2.33844C960.969 10.3375 967.481 15.8682 975.291 15.8991C983.285 15.93 989.556 10.4427 991.15 2.21471C991.305 1.3981 992.373 0.154623 993.047 0.136064C998.793 -0.0309697 1004.55 0.0370811 1010.44 0.0370811C1010.8 1.62081 1011.04 3.01276 1011.44 4.3614C1013.57 11.6676 1020.14 16.2703 1027.77 15.8558C1035.03 15.4661 1041.22 9.93538 1042.32 2.57971C1042.62 0.59386 1043.28 -0.0247833 1045.22 0.0185218C1050.46 0.129878 1055.71 0.0680133 1060.96 0.0989455C1061.25 0.0989455 1061.54 0.272166 1061.02 0.866063C1063.06 4.44182 1064.55 8.52487 1067.27 11.482C1071.41 15.9919 1077.09 17.0003 1082.93 15.0887C1088.9 13.14 1092.59 8.85894 1093.65 2.66013C1094.01 0.538182 1094.75 -0.0309697 1096.77 0.0123354C1102.22 0.123691 1107.67 0.049454 1113.24 0.049454C1113.77 4.70784 1115.19 8.75377 1118.63 11.7418C1123.27 15.7692 1128.64 17.025 1134.47 15.0206C1140.27 13.0286 1143.95 8.84657 1144.94 2.74674C1145.32 0.408267 1146.24 -0.0371561 1148.33 0.0123354C1153.66 0.136064 1159.01 0.0556404 1164.28 0.0556404C1167.47 11.3583 1172.57 16.0847 1181.18 15.8744C1189.31 15.6826 1194.56 10.5231 1196.95 0.253606H1215.83C1217.05 9.41572 1222.11 14.9031 1231.74 16.0599V34.9719C1220.3 38.4858 1215.56 43.6638 1216.07 52.0836C1216.56 60.3053 1222.04 65.7308 1231.76 67.4383V86.3193C1220.29 89.8332 1215.6 94.9679 1216.06 103.462C1216.5 111.597 1222.07 117.097 1231.97 118.829C1231.97 124.787 1232 130.831 1231.89 136.869C1231.89 137.333 1230.89 138.044 1230.24 138.193C1220.98 140.352 1215.77 146.309 1216.06 154.519C1216.27 160.872 1220.73 168.958 1231.26 170.022C1231.35 170.034 1231.45 170.096 1231.96 170.288C1231.96 176.165 1232 182.209 1231.89 188.253C1231.87 188.711 1230.86 189.41 1230.21 189.559C1221.12 191.625 1215.88 197.52 1216.05 205.594C1216.24 213.89 1221.89 219.835 1231 221.314C1231.2 221.344 1231.39 221.437 1231.79 221.573V240.578C1226.23 241.172 1221.14 243.244 1218.48 248.509C1217.06 251.324 1216.14 254.788 1216.25 257.912C1216.55 265.924 1221.91 270.83 1231.8 272.927V291.95C1226.31 292.495 1221.28 294.518 1218.63 299.64C1217.14 302.529 1216.13 306.099 1216.25 309.309C1216.56 317.426 1222.03 322.375 1231.74 324.243C1231.81 324.596 1231.96 324.986 1231.96 325.382C1231.98 331.253 1231.97 337.124 1231.97 343.261C1226.42 343.805 1221.48 345.791 1218.79 350.734C1217.24 353.586 1216.19 357.131 1216.23 360.347C1216.33 368.433 1221.82 373.518 1231.77 375.622C1231.84 376.067 1231.98 376.568 1231.98 377.063C1231.99 382.829 1231.98 388.589 1231.98 394.651C1226.41 395.189 1221.45 397.151 1218.78 402.106C1217.22 404.964 1216.21 408.503 1216.21 411.738C1216.21 419.644 1221.72 424.742 1231.77 427.013C1231.84 427.563 1231.97 428.157 1231.97 428.757C1231.98 434.418 1231.97 440.072 1231.97 445.968C1226.49 446.549 1221.6 448.399 1218.92 453.231C1217.35 456.076 1216.21 459.59 1216.19 462.807C1216.16 470.93 1221.41 475.879 1231.97 478.453C1231.97 484.225 1232.02 490.077 1231.9 495.929H1231.92Z" fill="#DEE5EA"/>
</svg>
